<mxfile host="65bd71144e">
    <diagram id="R7JGW48iA_OiMXYkvlov" name="第 1 页">
        <mxGraphModel dx="659" dy="433" grid="1" gridSize="10" guides="1" tooltips="1" connect="1" arrows="1" fold="1" page="1" pageScale="1" pageWidth="827" pageHeight="1169" math="0" shadow="0">
            <root>
                <mxCell id="0"/>
                <mxCell id="1" parent="0"/>
                <mxCell id="127" value="" style="ellipse;whiteSpace=wrap;html=1;" vertex="1" parent="1">
                    <mxGeometry x="50" width="210" height="320" as="geometry"/>
                </mxCell>
                <mxCell id="94" value="" style="edgeStyle=none;html=1;strokeColor=default;startArrow=open;startFill=0;" edge="1" parent="1" source="92" target="93">
                    <mxGeometry relative="1" as="geometry"/>
                </mxCell>
                <mxCell id="92" value="资产：&lt;br&gt;&lt;span&gt;（一般会有杠杆：现金去撬动银行借款&lt;/span&gt;" style="rounded=0;whiteSpace=wrap;html=1;" vertex="1" parent="1">
                    <mxGeometry x="100" y="70" width="120" height="60" as="geometry"/>
                </mxCell>
                <mxCell id="96" value="" style="edgeStyle=none;html=1;startArrow=classic;startFill=1;" edge="1" parent="1" source="93" target="95">
                    <mxGeometry relative="1" as="geometry"/>
                </mxCell>
                <mxCell id="93" value="收入" style="rounded=0;whiteSpace=wrap;html=1;" vertex="1" parent="1">
                    <mxGeometry x="420" y="70" width="120" height="60" as="geometry"/>
                </mxCell>
                <mxCell id="98" value="" style="edgeStyle=none;html=1;" edge="1" parent="1" source="95" target="97">
                    <mxGeometry relative="1" as="geometry"/>
                </mxCell>
                <mxCell id="99" value="" style="html=1;strokeColor=default;endArrow=classic;endFill=1;rounded=1;startArrow=classic;startFill=1;" edge="1" parent="1" source="95" target="97">
                    <mxGeometry relative="1" as="geometry"/>
                </mxCell>
                <mxCell id="122" value="" style="edgeStyle=none;rounded=1;html=1;startArrow=classic;startFill=1;endArrow=classic;endFill=1;strokeColor=default;" edge="1" parent="1" source="95" target="121">
                    <mxGeometry relative="1" as="geometry"/>
                </mxCell>
                <mxCell id="95" value="利润" style="rounded=0;whiteSpace=wrap;html=1;" vertex="1" parent="1">
                    <mxGeometry x="420" y="210" width="120" height="60" as="geometry"/>
                </mxCell>
                <mxCell id="101" style="edgeStyle=none;rounded=1;html=1;entryX=0.5;entryY=1;entryDx=0;entryDy=0;endArrow=classic;endFill=1;strokeColor=default;startArrow=classic;startFill=1;" edge="1" parent="1" source="97" target="92">
                    <mxGeometry relative="1" as="geometry"/>
                </mxCell>
                <mxCell id="97" value="所有者权益" style="rounded=0;whiteSpace=wrap;html=1;" vertex="1" parent="1">
                    <mxGeometry x="100" y="210" width="120" height="60" as="geometry"/>
                </mxCell>
                <mxCell id="102" value="财务杠杆=" style="text;html=1;align=center;verticalAlign=middle;resizable=0;points=[];autosize=1;strokeColor=none;fillColor=none;" vertex="1" parent="1">
                    <mxGeometry x="170" y="160" width="70" height="20" as="geometry"/>
                </mxCell>
                <mxCell id="103" value="资产周转率=" style="text;html=1;align=center;verticalAlign=middle;resizable=0;points=[];autosize=1;strokeColor=none;fillColor=none;" vertex="1" parent="1">
                    <mxGeometry x="190" y="30" width="80" height="20" as="geometry"/>
                </mxCell>
                <mxCell id="104" value="收入" style="text;html=1;align=center;verticalAlign=middle;resizable=0;points=[];autosize=1;strokeColor=none;fillColor=none;" vertex="1" parent="1">
                    <mxGeometry x="280" y="20" width="40" height="20" as="geometry"/>
                </mxCell>
                <mxCell id="105" value="" style="endArrow=none;html=1;rounded=1;strokeColor=default;" edge="1" parent="1">
                    <mxGeometry width="50" height="50" relative="1" as="geometry">
                        <mxPoint x="270" y="40" as="sourcePoint"/>
                        <mxPoint x="330" y="40" as="targetPoint"/>
                    </mxGeometry>
                </mxCell>
                <mxCell id="106" value="资产" style="text;html=1;align=center;verticalAlign=middle;resizable=0;points=[];autosize=1;strokeColor=none;fillColor=none;" vertex="1" parent="1">
                    <mxGeometry x="280" y="40" width="40" height="20" as="geometry"/>
                </mxCell>
                <mxCell id="107" value="利润率=" style="text;html=1;align=center;verticalAlign=middle;resizable=0;points=[];autosize=1;strokeColor=none;fillColor=none;" vertex="1" parent="1">
                    <mxGeometry x="490" y="160" width="60" height="20" as="geometry"/>
                </mxCell>
                <mxCell id="108" value="利润" style="text;html=1;align=center;verticalAlign=middle;resizable=0;points=[];autosize=1;strokeColor=none;fillColor=none;" vertex="1" parent="1">
                    <mxGeometry x="570" y="150" width="40" height="20" as="geometry"/>
                </mxCell>
                <mxCell id="109" value="" style="endArrow=none;html=1;rounded=1;strokeColor=default;" edge="1" parent="1">
                    <mxGeometry width="50" height="50" relative="1" as="geometry">
                        <mxPoint x="560" y="170" as="sourcePoint"/>
                        <mxPoint x="620" y="170" as="targetPoint"/>
                    </mxGeometry>
                </mxCell>
                <mxCell id="110" value="收入" style="text;html=1;align=center;verticalAlign=middle;resizable=0;points=[];autosize=1;strokeColor=none;fillColor=none;" vertex="1" parent="1">
                    <mxGeometry x="570" y="170" width="40" height="20" as="geometry"/>
                </mxCell>
                <mxCell id="111" value="资产" style="text;html=1;align=center;verticalAlign=middle;resizable=0;points=[];autosize=1;strokeColor=none;fillColor=none;" vertex="1" parent="1">
                    <mxGeometry x="245" y="150" width="40" height="20" as="geometry"/>
                </mxCell>
                <mxCell id="112" value="" style="endArrow=none;html=1;rounded=1;strokeColor=default;" edge="1" parent="1">
                    <mxGeometry width="50" height="50" relative="1" as="geometry">
                        <mxPoint x="235" y="170" as="sourcePoint"/>
                        <mxPoint x="295" y="170" as="targetPoint"/>
                    </mxGeometry>
                </mxCell>
                <mxCell id="113" value="所有者权益" style="text;html=1;align=center;verticalAlign=middle;resizable=0;points=[];autosize=1;strokeColor=none;fillColor=none;" vertex="1" parent="1">
                    <mxGeometry x="225" y="170" width="80" height="20" as="geometry"/>
                </mxCell>
                <mxCell id="115" value="杜邦分析法" style="rounded=0;whiteSpace=wrap;html=1;" vertex="1" parent="1">
                    <mxGeometry x="105" y="330" width="445" height="30" as="geometry"/>
                </mxCell>
                <mxCell id="116" value="权益回报率（ROE) =" style="text;html=1;align=center;verticalAlign=middle;resizable=0;points=[];autosize=1;strokeColor=none;fillColor=none;" vertex="1" parent="1">
                    <mxGeometry x="80" y="400" width="130" height="20" as="geometry"/>
                </mxCell>
                <mxCell id="117" value="利润" style="text;html=1;align=center;verticalAlign=middle;resizable=0;points=[];autosize=1;strokeColor=none;fillColor=none;" vertex="1" parent="1">
                    <mxGeometry x="235" y="390" width="40" height="20" as="geometry"/>
                </mxCell>
                <mxCell id="118" value="" style="endArrow=none;html=1;rounded=1;strokeColor=default;" edge="1" parent="1">
                    <mxGeometry width="50" height="50" relative="1" as="geometry">
                        <mxPoint x="225" y="410" as="sourcePoint"/>
                        <mxPoint x="285" y="410" as="targetPoint"/>
                    </mxGeometry>
                </mxCell>
                <mxCell id="119" value="所有者权益" style="text;html=1;align=center;verticalAlign=middle;resizable=0;points=[];autosize=1;strokeColor=none;fillColor=none;" vertex="1" parent="1">
                    <mxGeometry x="215" y="410" width="80" height="20" as="geometry"/>
                </mxCell>
                <mxCell id="120" value="=利润率*资产周转率*财务杠杆" style="text;html=1;align=center;verticalAlign=middle;resizable=0;points=[];autosize=1;strokeColor=none;fillColor=none;" vertex="1" parent="1">
                    <mxGeometry x="330" y="400" width="180" height="20" as="geometry"/>
                </mxCell>
                <mxCell id="121" value="现金流" style="rounded=0;whiteSpace=wrap;html=1;" vertex="1" parent="1">
                    <mxGeometry x="770" y="210" width="120" height="60" as="geometry"/>
                </mxCell>
                <mxCell id="123" value="收现率=" style="text;html=1;align=center;verticalAlign=middle;resizable=0;points=[];autosize=1;strokeColor=none;fillColor=none;" vertex="1" parent="1">
                    <mxGeometry x="570" y="210" width="60" height="20" as="geometry"/>
                </mxCell>
                <mxCell id="124" value="现金流" style="text;html=1;align=center;verticalAlign=middle;resizable=0;points=[];autosize=1;strokeColor=none;fillColor=none;" vertex="1" parent="1">
                    <mxGeometry x="645" y="200" width="50" height="20" as="geometry"/>
                </mxCell>
                <mxCell id="125" value="" style="endArrow=none;html=1;rounded=1;strokeColor=default;" edge="1" parent="1">
                    <mxGeometry width="50" height="50" relative="1" as="geometry">
                        <mxPoint x="640" y="220" as="sourcePoint"/>
                        <mxPoint x="700" y="220" as="targetPoint"/>
                    </mxGeometry>
                </mxCell>
                <mxCell id="126" value="利润" style="text;html=1;align=center;verticalAlign=middle;resizable=0;points=[];autosize=1;strokeColor=none;fillColor=none;" vertex="1" parent="1">
                    <mxGeometry x="650" y="220" width="40" height="20" as="geometry"/>
                </mxCell>
                <mxCell id="128" value="资产负债表" style="text;html=1;strokeColor=none;fillColor=none;align=center;verticalAlign=middle;whiteSpace=wrap;rounded=0;" vertex="1" parent="1">
                    <mxGeometry x="112.5" y="10" width="85" height="30" as="geometry"/>
                </mxCell>
            </root>
        </mxGraphModel>
    </diagram>
</mxfile>